<?xml version="1.0" encoding="UTF-8" standalone="no"?>
<!DOCTYPE svg PUBLIC "-//W3C//DTD SVG 1.1//EN"
 "http://www.w3.org/Graphics/SVG/1.1/DTD/svg11.dtd">
<!-- Generated by graphviz version 15.0.0 (20260523.1842)
 -->
<!-- Pages: 1 -->
<svg width="454pt" height="332pt"
 viewBox="0.00 0.00 454.00 332.00" xmlns="http://www.w3.org/2000/svg" xmlns:xlink="http://www.w3.org/1999/xlink">
<g id="graph0" class="graph" transform="scale(1 1) rotate(0) translate(4 328)">
<polygon fill="none" stroke="none" points="-4,4 -4,-328 449.76,-328 449.76,4 -4,4"/>
<!-- @api/hono -->
<g id="node1" class="node">
<title>@api/hono</title>
<ellipse fill="none" stroke="#3b82f6" cx="228.34" cy="-234" rx="96.91" ry="18"/>
<text xml:space="preserve" text-anchor="middle" x="228.34" y="-229.8" font-family="Times,serif" font-size="14.00" fill="#3b82f6">@api/hono (1.21 MB)</text>
</g>
<!-- @packages/config -->
<g id="node2" class="node">
<title>@packages/config</title>
<ellipse fill="none" stroke="#3b82f6" cx="244.34" cy="-90" rx="82.67" ry="18"/>
<text xml:space="preserve" text-anchor="middle" x="244.34" y="-85.8" font-family="Times,serif" font-size="14.00" fill="#3b82f6">@packages/config</text>
</g>
<!-- @api/hono&#45;&gt;@packages/config -->
<g id="edge1" class="edge">
<title>@api/hono&#45;&gt;@packages/config</title>
<path fill="none" stroke="#3b82f6" d="M260.63,-216.55C274.3,-207.73 288.79,-195.47 296.34,-180 303.37,-165.62 302.4,-158.81 296.34,-144 291.92,-133.17 284.1,-123.36 275.84,-115.2"/>
<polygon fill="#3b82f6" stroke="#3b82f6" points="278.41,-112.81 268.67,-108.65 273.69,-117.98 278.41,-112.81"/>
</g>
<!-- @packages/env -->
<g id="node3" class="node">
<title>@packages/env</title>
<ellipse fill="none" stroke="#3b82f6" cx="173.34" cy="-162" rx="113.52" ry="18"/>
<text xml:space="preserve" text-anchor="middle" x="173.34" y="-157.8" font-family="Times,serif" font-size="14.00" fill="#3b82f6">@packages/env (2.83 KB)</text>
</g>
<!-- @api/hono&#45;&gt;@packages/env -->
<g id="edge2" class="edge">
<title>@api/hono&#45;&gt;@packages/env</title>
<path fill="none" stroke="#3b82f6" d="M214.75,-215.7C208.42,-207.64 200.76,-197.89 193.76,-188.98"/>
<polygon fill="#3b82f6" stroke="#3b82f6" points="196.65,-187 187.72,-181.29 191.14,-191.32 196.65,-187"/>
</g>
<!-- peerzero -->
<g id="node4" class="node">
<title>peerzero</title>
<ellipse fill="none" stroke="#3b82f6" cx="244.34" cy="-18" rx="44.27" ry="18"/>
<text xml:space="preserve" text-anchor="middle" x="244.34" y="-13.8" font-family="Times,serif" font-size="14.00" fill="#3b82f6">peerzero</text>
</g>
<!-- @packages/config&#45;&gt;peerzero -->
<g id="edge3" class="edge">
<title>@packages/config&#45;&gt;peerzero</title>
<path fill="none" stroke="#3b82f6" d="M244.34,-71.7C244.34,-64.41 244.34,-55.73 244.34,-47.54"/>
<polygon fill="#3b82f6" stroke="#3b82f6" points="247.84,-47.62 244.34,-37.62 240.84,-47.62 247.84,-47.62"/>
</g>
<!-- @packages/env&#45;&gt;@packages/config -->
<g id="edge4" class="edge">
<title>@packages/env&#45;&gt;@packages/config</title>
<path fill="none" stroke="#3b82f6" d="M190.53,-144.05C199.16,-135.54 209.79,-125.07 219.31,-115.68"/>
<polygon fill="#3b82f6" stroke="#3b82f6" points="221.57,-118.36 226.24,-108.85 216.66,-113.38 221.57,-118.36"/>
</g>
<!-- @tests/root -->
<g id="node5" class="node">
<title>@tests/root</title>
<ellipse fill="none" stroke="#3b82f6" cx="341.34" cy="-306" rx="104.42" ry="18"/>
<text xml:space="preserve" text-anchor="middle" x="341.34" y="-301.8" font-family="Times,serif" font-size="14.00" fill="#3b82f6">@tests/root</text>
</g>
<!-- @tests/root&#45;&gt;@api/hono -->
<g id="edge5" class="edge">
<title>@tests/root&#45;&gt;@api/hono</title>
<path fill="none" stroke="#3b82f6" d="M314.28,-288.23C299.46,-279.06 280.9,-267.56 264.82,-257.6"/>
<polygon fill="#3b82f6" stroke="#3b82f6" points="266.82,-254.72 256.48,-252.43 263.13,-260.67 266.82,-254.72"/>
</g>
<!-- @tests/root&#45;&gt;@packages/config -->
<g id="edge6" class="edge">
<title>@tests/root&#45;&gt;@packages/config</title>
<path fill="none" stroke="#3b82f6" d="M342.63,-287.78C344.1,-256.32 343.09,-188.69 312.34,-144 304.32,-132.34 292.95,-122.07 281.8,-113.74"/>
<polygon fill="#3b82f6" stroke="#3b82f6" points="283.99,-111 273.8,-108.1 279.95,-116.72 283.99,-111"/>
</g>
<!-- @web/next -->
<g id="node6" class="node">
<title>@web/next</title>
<ellipse fill="none" stroke="#3b82f6" cx="103.34" cy="-306" rx="103.34" ry="18"/>
<text xml:space="preserve" text-anchor="middle" x="103.34" y="-301.8" font-family="Times,serif" font-size="14.00" fill="#3b82f6">@web/next (25.14 MB)</text>
</g>
<!-- @web/next&#45;&gt;@api/hono -->
<g id="edge7" class="edge">
<title>@web/next&#45;&gt;@api/hono</title>
<path fill="none" stroke="#3b82f6" d="M132.97,-288.41C149.7,-279.04 170.83,-267.21 188.95,-257.06"/>
<polygon fill="#3b82f6" stroke="#3b82f6" points="190.6,-260.15 197.61,-252.21 187.18,-254.04 190.6,-260.15"/>
</g>
<!-- @web/next&#45;&gt;@packages/config -->
<g id="edge8" class="edge">
<title>@web/next&#45;&gt;@packages/config</title>
<path fill="none" stroke="#3b82f6" d="M88.23,-287.77C62.53,-256.31 16.24,-188.67 50.34,-144 64.69,-125.21 118.12,-111.47 165.29,-102.7"/>
<polygon fill="#3b82f6" stroke="#3b82f6" points="165.78,-106.17 175,-100.95 164.54,-99.28 165.78,-106.17"/>
</g>
<!-- @web/next&#45;&gt;@packages/env -->
<g id="edge9" class="edge">
<title>@web/next&#45;&gt;@packages/env</title>
<path fill="none" stroke="#3b82f6" d="M104.23,-287.64C105.81,-268.97 110.19,-238.88 122.34,-216 127.77,-205.79 135.73,-196.17 143.77,-188"/>
<polygon fill="#3b82f6" stroke="#3b82f6" points="146.17,-190.55 150.97,-181.1 141.33,-185.5 146.17,-190.55"/>
</g>
</g>
</svg>
