<?xml version="1.0" encoding="UTF-8" standalone="no"?>
<!DOCTYPE svg PUBLIC "-//W3C//DTD SVG 1.1//EN"
 "http://www.w3.org/Graphics/SVG/1.1/DTD/svg11.dtd">
<!-- Generated by graphviz version 15.0.0 (20260523.1842)
 -->
<!-- Pages: 1 -->
<svg width="541pt" height="332pt"
 viewBox="0.00 0.00 541.00 332.00" xmlns="http://www.w3.org/2000/svg" xmlns:xlink="http://www.w3.org/1999/xlink">
<g id="graph0" class="graph" transform="scale(1 1) rotate(0) translate(4 328)">
<polygon fill="none" stroke="none" points="-4,4 -4,-328 536.53,-328 536.53,4 -4,4"/>
<!-- @api/hono -->
<g id="node1" class="node">
<title>@api/hono</title>
<ellipse fill="none" stroke="#3b82f6" cx="296.19" cy="-234" rx="104.96" ry="18"/>
<text xml:space="preserve" text-anchor="middle" x="296.19" y="-229.8" font-family="Times,serif" font-size="14.00" fill="#3b82f6">@api/hono (556.00 KB)</text>
</g>
<!-- @packages/config -->
<g id="node2" class="node">
<title>@packages/config</title>
<ellipse fill="none" stroke="#3b82f6" cx="377.19" cy="-90" rx="82.67" ry="18"/>
<text xml:space="preserve" text-anchor="middle" x="377.19" y="-85.8" font-family="Times,serif" font-size="14.00" fill="#3b82f6">@packages/config</text>
</g>
<!-- @api/hono&#45;&gt;@packages/config -->
<g id="edge1" class="edge">
<title>@api/hono&#45;&gt;@packages/config</title>
<path fill="none" stroke="#3b82f6" d="M277.85,-215.85C260.36,-197.35 238.79,-167.41 254.19,-144 266,-126.05 285.31,-114.16 305.16,-106.28"/>
<polygon fill="#3b82f6" stroke="#3b82f6" points="306.24,-109.61 314.45,-102.93 303.86,-103.03 306.24,-109.61"/>
</g>
<!-- @packages/env -->
<g id="node3" class="node">
<title>@packages/env</title>
<ellipse fill="none" stroke="#3b82f6" cx="377.19" cy="-162" rx="113.52" ry="18"/>
<text xml:space="preserve" text-anchor="middle" x="377.19" y="-157.8" font-family="Times,serif" font-size="14.00" fill="#3b82f6">@packages/env (2.93 KB)</text>
</g>
<!-- @api/hono&#45;&gt;@packages/env -->
<g id="edge2" class="edge">
<title>@api/hono&#45;&gt;@packages/env</title>
<path fill="none" stroke="#3b82f6" d="M315.8,-216.05C325.77,-207.43 338.08,-196.8 349.04,-187.32"/>
<polygon fill="#3b82f6" stroke="#3b82f6" points="351.06,-190.21 356.34,-181.02 346.48,-184.91 351.06,-190.21"/>
</g>
<!-- peerzero -->
<g id="node5" class="node">
<title>peerzero</title>
<ellipse fill="none" stroke="#3b82f6" cx="257.19" cy="-18" rx="44.27" ry="18"/>
<text xml:space="preserve" text-anchor="middle" x="257.19" y="-13.8" font-family="Times,serif" font-size="14.00" fill="#3b82f6">peerzero</text>
</g>
<!-- @packages/config&#45;&gt;peerzero -->
<g id="edge4" class="edge">
<title>@packages/config&#45;&gt;peerzero</title>
<path fill="none" stroke="#3b82f6" d="M349.36,-72.76C332.07,-62.68 309.71,-49.64 291.35,-38.93"/>
<polygon fill="#3b82f6" stroke="#3b82f6" points="293.33,-36.03 282.93,-34.01 289.8,-42.07 293.33,-36.03"/>
</g>
<!-- @packages/env&#45;&gt;@packages/config -->
<g id="edge5" class="edge">
<title>@packages/env&#45;&gt;@packages/config</title>
<path fill="none" stroke="#3b82f6" d="M377.19,-143.7C377.19,-136.41 377.19,-127.73 377.19,-119.54"/>
<polygon fill="#3b82f6" stroke="#3b82f6" points="380.69,-119.62 377.19,-109.62 373.69,-119.62 380.69,-119.62"/>
</g>
<!-- @api/torrent&#45;engine -->
<g id="node4" class="node">
<title>@api/torrent&#45;engine</title>
<ellipse fill="none" stroke="#3b82f6" cx="138.19" cy="-90" rx="138.19" ry="18"/>
<text xml:space="preserve" text-anchor="middle" x="138.19" y="-85.8" font-family="Times,serif" font-size="14.00" fill="#3b82f6">@api/torrent&#45;engine</text>
</g>
<!-- @api/torrent&#45;engine&#45;&gt;peerzero -->
<g id="edge3" class="edge">
<title>@api/torrent&#45;engine&#45;&gt;peerzero</title>
<path fill="none" stroke="#3b82f6" d="M167,-72.05C183.94,-62.09 205.47,-49.43 223.23,-38.97"/>
<polygon fill="#3b82f6" stroke="#3b82f6" points="224.52,-42.28 231.36,-34.19 220.97,-36.25 224.52,-42.28"/>
</g>
<!-- @web/next -->
<g id="node6" class="node">
<title>@web/next</title>
<ellipse fill="none" stroke="#3b82f6" cx="429.19" cy="-306" rx="103.34" ry="18"/>
<text xml:space="preserve" text-anchor="middle" x="429.19" y="-301.8" font-family="Times,serif" font-size="14.00" fill="#3b82f6">@web/next (56.75 MB)</text>
</g>
<!-- @web/next&#45;&gt;@api/hono -->
<g id="edge6" class="edge">
<title>@web/next&#45;&gt;@api/hono</title>
<path fill="none" stroke="#3b82f6" d="M397.67,-288.41C379.7,-278.95 356.96,-266.99 337.57,-256.78"/>
<polygon fill="#3b82f6" stroke="#3b82f6" points="339.3,-253.74 328.82,-252.17 336.04,-259.93 339.3,-253.74"/>
</g>
<!-- @web/next&#45;&gt;@packages/config -->
<g id="edge7" class="edge">
<title>@web/next&#45;&gt;@packages/config</title>
<path fill="none" stroke="#3b82f6" d="M447.28,-288.08C477.53,-257.69 532.09,-192.49 500.19,-144 488.38,-126.05 469.07,-114.16 449.22,-106.28"/>
<polygon fill="#3b82f6" stroke="#3b82f6" points="450.52,-103.03 439.93,-102.93 448.14,-109.61 450.52,-103.03"/>
</g>
<!-- @web/next&#45;&gt;@packages/env -->
<g id="edge8" class="edge">
<title>@web/next&#45;&gt;@packages/env</title>
<path fill="none" stroke="#3b82f6" d="M427.3,-287.75C424.9,-269.43 419.83,-239.88 410.19,-216 406.6,-207.1 401.54,-198.01 396.46,-189.93"/>
<polygon fill="#3b82f6" stroke="#3b82f6" points="399.38,-188.01 390.96,-181.59 393.54,-191.86 399.38,-188.01"/>
</g>
</g>
</svg>
