<?xml version="1.0" encoding="UTF-8" standalone="no"?>
<!DOCTYPE svg PUBLIC "-//W3C//DTD SVG 1.1//EN"
 "http://www.w3.org/Graphics/SVG/1.1/DTD/svg11.dtd">
<!-- Generated by graphviz version 15.0.0 (20260523.1842)
 -->
<!-- Pages: 1 -->
<svg width="333pt" height="332pt"
 viewBox="0.00 0.00 333.00 332.00" xmlns="http://www.w3.org/2000/svg" xmlns:xlink="http://www.w3.org/1999/xlink">
<g id="graph0" class="graph" transform="scale(1 1) rotate(0) translate(4 328)">
<polygon fill="none" stroke="none" points="-4,4 -4,-328 329.25,-328 329.25,4 -4,4"/>
<!-- @api/hono -->
<g id="node1" class="node">
<title>@api/hono</title>
<ellipse fill="none" stroke="#3b82f6" cx="96.91" cy="-234" rx="96.91" ry="18"/>
<text xml:space="preserve" text-anchor="middle" x="96.91" y="-229.8" font-family="Times,serif" font-size="14.00" fill="#3b82f6">@api/hono (1.21 MB)</text>
</g>
<!-- @packages/config -->
<g id="node2" class="node">
<title>@packages/config</title>
<ellipse fill="none" stroke="#3b82f6" cx="169.91" cy="-90" rx="82.67" ry="18"/>
<text xml:space="preserve" text-anchor="middle" x="169.91" y="-85.8" font-family="Times,serif" font-size="14.00" fill="#3b82f6">@packages/config</text>
</g>
<!-- @api/hono&#45;&gt;@packages/config -->
<g id="edge1" class="edge">
<title>@api/hono&#45;&gt;@packages/config</title>
<path fill="none" stroke="#3b82f6" d="M75.99,-216.19C55.95,-197.98 30.94,-168.28 46.91,-144 58.72,-126.05 78.03,-114.16 97.88,-106.28"/>
<polygon fill="#3b82f6" stroke="#3b82f6" points="98.96,-109.61 107.18,-102.93 96.58,-103.03 98.96,-109.61"/>
</g>
<!-- @packages/env -->
<g id="node3" class="node">
<title>@packages/env</title>
<ellipse fill="none" stroke="#3b82f6" cx="169.91" cy="-162" rx="113.52" ry="18"/>
<text xml:space="preserve" text-anchor="middle" x="169.91" y="-157.8" font-family="Times,serif" font-size="14.00" fill="#3b82f6">@packages/env (2.83 KB)</text>
</g>
<!-- @api/hono&#45;&gt;@packages/env -->
<g id="edge2" class="edge">
<title>@api/hono&#45;&gt;@packages/env</title>
<path fill="none" stroke="#3b82f6" d="M114.58,-216.05C123.39,-207.61 134.22,-197.22 143.96,-187.89"/>
<polygon fill="#3b82f6" stroke="#3b82f6" points="146.26,-190.53 151.06,-181.08 141.42,-185.47 146.26,-190.53"/>
</g>
<!-- peerzero -->
<g id="node4" class="node">
<title>peerzero</title>
<ellipse fill="none" stroke="#3b82f6" cx="169.91" cy="-18" rx="44.27" ry="18"/>
<text xml:space="preserve" text-anchor="middle" x="169.91" y="-13.8" font-family="Times,serif" font-size="14.00" fill="#3b82f6">peerzero</text>
</g>
<!-- @packages/config&#45;&gt;peerzero -->
<g id="edge3" class="edge">
<title>@packages/config&#45;&gt;peerzero</title>
<path fill="none" stroke="#3b82f6" d="M169.91,-71.7C169.91,-64.41 169.91,-55.73 169.91,-47.54"/>
<polygon fill="#3b82f6" stroke="#3b82f6" points="173.41,-47.62 169.91,-37.62 166.41,-47.62 173.41,-47.62"/>
</g>
<!-- @packages/env&#45;&gt;@packages/config -->
<g id="edge4" class="edge">
<title>@packages/env&#45;&gt;@packages/config</title>
<path fill="none" stroke="#3b82f6" d="M169.91,-143.7C169.91,-136.41 169.91,-127.73 169.91,-119.54"/>
<polygon fill="#3b82f6" stroke="#3b82f6" points="173.41,-119.62 169.91,-109.62 166.41,-119.62 173.41,-119.62"/>
</g>
<!-- @web/next -->
<g id="node5" class="node">
<title>@web/next</title>
<ellipse fill="none" stroke="#3b82f6" cx="221.91" cy="-306" rx="103.34" ry="18"/>
<text xml:space="preserve" text-anchor="middle" x="221.91" y="-301.8" font-family="Times,serif" font-size="14.00" fill="#3b82f6">@web/next (56.91 MB)</text>
</g>
<!-- @web/next&#45;&gt;@api/hono -->
<g id="edge5" class="edge">
<title>@web/next&#45;&gt;@api/hono</title>
<path fill="none" stroke="#3b82f6" d="M192.29,-288.41C175.55,-279.04 154.42,-267.21 136.31,-257.06"/>
<polygon fill="#3b82f6" stroke="#3b82f6" points="138.08,-254.04 127.64,-252.21 134.66,-260.15 138.08,-254.04"/>
</g>
<!-- @web/next&#45;&gt;@packages/config -->
<g id="edge6" class="edge">
<title>@web/next&#45;&gt;@packages/config</title>
<path fill="none" stroke="#3b82f6" d="M240,-288.08C270.25,-257.69 324.82,-192.49 292.91,-144 281.1,-126.05 261.8,-114.16 241.94,-106.28"/>
<polygon fill="#3b82f6" stroke="#3b82f6" points="243.24,-103.03 232.65,-102.93 240.87,-109.61 243.24,-103.03"/>
</g>
<!-- @web/next&#45;&gt;@packages/env -->
<g id="edge7" class="edge">
<title>@web/next&#45;&gt;@packages/env</title>
<path fill="none" stroke="#3b82f6" d="M220.03,-287.75C217.62,-269.43 212.55,-239.88 202.91,-216 199.32,-207.1 194.26,-198.01 189.18,-189.93"/>
<polygon fill="#3b82f6" stroke="#3b82f6" points="192.11,-188.01 183.68,-181.59 186.26,-191.86 192.11,-188.01"/>
</g>
</g>
</svg>
